<?xml version="1.0" standalone="no"?>
<!DOCTYPE svg PUBLIC "-//W3C//DTD SVG 20010904//EN"
 "http://www.w3.org/TR/2001/REC-SVG-20010904/DTD/svg10.dtd">
<svg version="1.0" xmlns="http://www.w3.org/2000/svg"
 width="1466.000000pt" height="1232.000000pt" viewBox="0 0 1466.000000 1232.000000"
 preserveAspectRatio="xMidYMid meet">

<g transform="translate(0.000000,1232.000000) scale(0.100000,-0.100000)"
fill="#000000" stroke="none">
<path d="M0 6160 l0 -6160 7330 0 7330 0 0 6160 0 6160 -7330 0 -7330 0 0
-6160z m14354 2004 c9 -8 18 -25 21 -37 3 -12 4 -452 3 -977 l-3 -955 -32
-100 c-18 -55 -37 -118 -43 -141 -5 -22 -23 -60 -39 -85 -16 -24 -32 -61 -35
-82 -4 -20 -20 -52 -35 -70 -16 -17 -38 -50 -50 -72 -56 -103 -197 -262 -309
-349 -118 -91 -169 -127 -209 -146 -22 -11 -65 -36 -93 -55 -29 -19 -58 -35
-65 -35 -7 0 -38 -13 -68 -29 -31 -16 -91 -37 -133 -47 -97 -21 -179 -9 -280
42 -37 19 -75 34 -85 34 -16 0 -79 39 -105 65 -8 7 -27 16 -44 20 -16 4 -33
11 -36 17 -4 5 -33 27 -65 48 -89 57 -123 86 -231 195 -95 96 -137 146 -175
209 -10 16 -35 55 -57 88 -21 32 -44 80 -52 105 -8 26 -21 54 -30 64 -8 9 -38
90 -66 180 l-52 164 -4 944 c-2 520 -1 955 2 967 15 58 -67 54 1196 54 1039 0
1160 -2 1174 -16z m-12634 -655 c52 -5 151 -16 220 -24 69 -8 177 -19 240 -25
152 -16 184 -24 214 -61 l26 -31 0 -217 c0 -263 -1 -266 -90 -258 -35 3 -79
16 -116 35 -34 18 -88 35 -130 41 -39 6 -100 21 -135 35 -72 27 -135 38 -364
65 -288 35 -287 35 -425 6 -68 -15 -136 -33 -150 -40 -32 -17 -109 -89 -132
-124 -24 -36 -25 -146 0 -182 74 -111 140 -172 235 -220 23 -12 56 -31 72 -44
17 -12 41 -25 55 -29 26 -8 106 -45 265 -122 50 -25 97 -44 105 -44 8 0 51
-18 94 -40 43 -22 84 -40 90 -40 7 0 32 -13 57 -29 25 -15 67 -36 95 -45 27
-9 63 -25 79 -37 17 -11 55 -34 85 -50 151 -83 175 -100 311 -229 44 -41 87
-88 96 -105 8 -16 26 -41 38 -55 13 -14 43 -72 66 -130 l43 -105 0 -135 c1
-133 0 -137 -42 -262 -26 -76 -55 -142 -73 -164 -16 -20 -29 -41 -29 -47 0
-20 -166 -180 -211 -202 -25 -13 -51 -30 -58 -39 -7 -8 -37 -24 -67 -36 -30
-11 -81 -33 -112 -50 -34 -17 -81 -32 -117 -36 -33 -4 -98 -19 -145 -35 -116
-37 -252 -49 -577 -49 -301 0 -518 18 -615 51 -32 10 -102 24 -155 29 -197 20
-247 41 -278 115 -18 42 -14 487 4 509 30 36 97 30 146 -14 11 -10 40 -23 65
-30 25 -6 70 -24 100 -40 31 -15 83 -36 115 -45 33 -10 80 -28 105 -41 25 -12
81 -28 125 -34 44 -7 121 -22 170 -35 228 -59 396 -55 600 12 102 33 114 40
172 97 56 55 64 67 73 119 16 82 0 156 -50 233 -43 66 -131 148 -196 184 -21
12 -50 32 -64 45 -14 13 -49 33 -79 44 -29 11 -61 27 -70 35 -10 9 -44 25 -76
36 -32 11 -72 31 -90 44 -17 13 -51 30 -76 36 -24 6 -66 24 -94 39 -27 16 -76
38 -107 51 -32 12 -62 28 -68 35 -7 8 -35 21 -63 31 -29 9 -65 27 -82 39 -16
12 -48 31 -70 43 -22 11 -69 40 -105 64 -199 132 -298 237 -387 410 l-48 93 0
205 0 205 48 85 c83 147 172 242 282 301 22 12 58 34 80 49 22 16 63 33 91 39
28 6 72 21 97 34 25 14 74 29 109 36 34 6 106 18 158 27 228 40 479 48 720 23z
m1969 -59 c37 -18 101 -99 101 -126 0 -7 11 -25 24 -41 13 -15 35 -51 49 -80
15 -28 32 -55 38 -58 6 -4 24 -36 39 -70 15 -34 33 -66 39 -70 6 -3 23 -30 38
-58 14 -29 36 -65 48 -82 13 -16 26 -41 30 -55 4 -14 22 -43 39 -64 17 -22 43
-63 57 -90 14 -28 37 -71 49 -96 13 -25 36 -61 52 -82 16 -20 35 -51 42 -70 8
-19 29 -57 48 -86 72 -111 100 -159 118 -199 10 -22 23 -44 29 -48 6 -3 28
-38 49 -76 79 -149 90 -167 114 -200 14 -19 38 -56 52 -84 15 -27 34 -61 42
-75 8 -14 19 -38 24 -53 8 -23 15 -28 38 -25 l27 3 3 931 2 931 21 19 c19 17
42 19 283 22 143 2 275 1 293 -3 18 -3 45 -16 60 -29 l28 -24 -3 -1475 -2
-1476 -34 -35 -33 -36 -294 0 -294 0 -49 33 c-36 23 -53 43 -62 70 -7 21 -26
57 -42 80 -32 46 -71 110 -117 191 -65 115 -91 159 -112 189 -12 18 -34 55
-48 82 -14 28 -41 75 -60 105 -18 30 -46 77 -62 103 -15 27 -44 75 -64 107
-21 31 -46 77 -58 101 -12 24 -31 58 -44 76 -12 17 -34 53 -49 80 -16 26 -32
55 -38 63 -5 8 -17 31 -27 51 -18 36 -53 93 -109 177 -17 26 -35 59 -39 72 -4
14 -20 41 -36 62 -16 20 -36 53 -46 75 -10 21 -30 56 -45 77 -16 21 -28 44
-28 51 0 7 -14 31 -30 54 -17 23 -42 67 -57 97 l-26 56 -18 -23 c-18 -23 -19
-73 -19 -997 l0 -974 -31 -29 -31 -29 -275 0 -275 0 -29 29 -29 29 0 694 c0
1874 1 2268 7 2284 15 39 55 43 381 44 291 0 315 -1 351 -20z m2985 9 c13 -7
29 -23 35 -38 7 -17 12 -382 13 -1121 l3 -1095 27 -75 c14 -41 29 -96 33 -121
6 -39 17 -56 73 -115 92 -95 147 -123 270 -135 100 -10 264 -4 340 12 98 21
231 139 252 222 6 23 19 69 30 102 11 33 24 92 30 130 6 43 10 473 10 1133 0
1044 0 1062 20 1082 11 11 30 22 43 25 13 4 157 5 320 3 l295 -3 26 -24 26
-24 0 -1007 c0 -1042 -5 -1219 -39 -1313 -11 -29 -24 -83 -31 -122 -6 -40 -21
-85 -34 -105 -13 -20 -32 -53 -44 -75 -11 -22 -31 -52 -43 -66 -13 -15 -37
-43 -53 -64 -15 -20 -52 -52 -81 -71 -29 -18 -55 -37 -57 -42 -9 -22 -189
-107 -263 -123 -44 -9 -105 -26 -135 -37 -82 -30 -221 -42 -490 -42 -269 0
-408 12 -490 42 -30 11 -91 28 -135 37 -124 28 -261 108 -364 212 -77 78 -98
104 -121 150 -13 24 -34 60 -47 80 -15 23 -30 68 -39 120 -8 46 -21 101 -29
123 -30 74 -34 240 -35 1267 l0 1036 23 20 c30 29 42 30 359 32 188 1 285 -3
302 -10z m2963 -15 l28 -21 5 -591 c3 -325 7 -592 10 -595 28 -25 73 -27 539
-27 478 0 492 1 511 20 20 20 20 33 20 596 0 393 3 582 11 596 23 43 61 48
361 48 264 0 285 -1 315 -20 18 -11 35 -30 38 -42 3 -13 4 -680 3 -1484 l-3
-1461 -28 -36 -28 -37 -292 0 c-266 0 -294 2 -320 18 -59 40 -56 4 -57 662 0
556 -1 608 -18 640 -10 20 -27 37 -42 41 -14 4 -233 7 -488 8 -513 1 -513 1
-526 -60 -3 -17 -6 -304 -6 -636 l0 -605 -34 -34 -34 -34 -291 0 -291 0 -36
33 -35 32 0 1478 c0 812 3 1482 7 1488 3 6 20 19 38 30 29 18 49 19 323 17
279 -3 293 -4 320 -24z"/>
<path d="M13705 8010 c-234 -7 -701 -31 -893 -46 l-74 -6 26 -27 c18 -19 25
-34 20 -47 -14 -44 -28 -63 -48 -66 -19 -3 -21 -10 -21 -62 -1 -45 -5 -61 -20
-72 -10 -8 -15 -14 -11 -14 5 0 -7 -18 -27 -39 -19 -21 -38 -48 -41 -59 -4
-11 -13 -23 -21 -26 -8 -3 -15 -15 -15 -26 0 -18 -4 -20 -34 -15 -30 6 -34 4
-40 -20 -6 -24 -67 -95 -81 -95 -3 0 -17 7 -30 16 -23 15 -24 15 -50 -41 -34
-71 -65 -88 -99 -56 -14 13 -26 18 -30 12 -14 -21 -42 -361 -56 -659 -7 -162
-7 -281 0 -395 12 -178 27 -256 64 -320 13 -23 27 -60 31 -82 4 -22 15 -49 24
-60 10 -11 30 -42 46 -70 15 -27 41 -65 57 -83 15 -18 28 -39 28 -47 0 -7 10
-22 23 -32 12 -10 49 -47 82 -83 32 -36 76 -75 97 -88 21 -13 38 -27 38 -32 0
-5 21 -21 48 -36 26 -15 60 -38 75 -51 15 -12 49 -32 74 -43 26 -11 61 -31 78
-44 17 -14 51 -30 76 -36 24 -7 63 -23 87 -37 36 -22 52 -25 107 -21 42 3 70
10 83 22 11 9 47 25 80 35 33 10 75 30 94 44 18 14 58 37 88 51 56 27 88 47
174 113 70 55 228 210 251 248 11 18 38 59 59 91 71 106 84 128 96 169 7 22
26 64 43 93 27 49 32 72 49 230 17 164 18 236 12 972 -4 470 -10 802 -16 813
-21 40 -18 40 -503 27z m-217 -216 c193 -5 225 -9 245 -24 21 -17 22 -28 27
-189 3 -93 10 -174 15 -180 6 -5 61 -11 122 -13 155 -4 157 -6 162 -169 3
-102 1 -123 -14 -139 -24 -27 -100 -50 -164 -50 -68 0 -101 -8 -101 -25 0 -8
31 -14 102 -19 164 -11 173 -22 169 -204 -3 -167 -15 -181 -163 -194 -78 -6
-106 -12 -115 -25 -10 -12 -13 -86 -14 -277 0 -144 -3 -328 -5 -411 -5 -202 3
-195 -213 -195 -233 0 -245 4 -342 97 -44 43 -97 95 -117 117 -20 21 -52 45
-71 53 -39 17 -27 26 -187 -131 -61 -60 -119 -113 -128 -118 -33 -19 -78 3
-152 76 -41 39 -88 81 -104 94 -34 27 -38 57 -14 105 9 18 133 148 276 290
209 207 265 257 286 257 21 0 56 -29 164 -140 109 -111 143 -140 165 -140 l26
0 -6 577 c-5 391 -10 580 -17 587 -8 7 -82 10 -225 8 -252 -4 -286 0 -326 39
-25 24 -29 36 -30 86 -1 32 -3 104 -5 161 -2 66 0 101 6 97 6 -3 10 -2 10 4 0
11 232 9 738 -5z"/>
</g>
</svg>
