<?xml version="1.0" standalone="no"?>
<!DOCTYPE svg PUBLIC "-//W3C//DTD SVG 20010904//EN"
 "http://www.w3.org/TR/2001/REC-SVG-20010904/DTD/svg10.dtd">
<svg version="1.0" xmlns="http://www.w3.org/2000/svg"
 width="858.000000pt" height="850.000000pt" viewBox="0 0 858.000000 850.000000"
 preserveAspectRatio="xMidYMid meet">

<g transform="translate(0.000000,850.000000) scale(0.100000,-0.100000)"
fill="#000000" stroke="none">
<path d="M2975 7488 c-3 -7 -4 -771 -3 -1698 l3 -1685 1260 0 1260 0 0 1695 0
1695 -1258 3 c-1001 2 -1259 0 -1262 -10z m825 -293 l5 -100 54 -84 c29 -47
84 -135 121 -195 36 -61 110 -181 162 -268 69 -112 93 -159 85 -167 -17 -17
-252 -15 -269 3 -8 7 -71 109 -142 225 -70 117 -133 210 -138 209 -5 -2 -68
-100 -139 -218 -72 -118 -136 -218 -142 -222 -7 -4 -67 -8 -135 -8 -99 0 -124
3 -128 15 -6 16 9 44 111 210 89 144 250 407 286 468 26 43 29 57 29 136 0 48
3 91 7 95 4 3 57 5 117 4 l111 -3 5 -100z m1430 13 c3 -541 -2 -813 -13 -820
-21 -14 -831 -10 -845 4 -9 9 -12 117 -12 424 0 227 3 419 6 428 5 14 53 16
435 16 l429 0 0 -52z m-1450 -938 c12 -7 16 -40 20 -152 l5 -143 105 -5 105
-5 3 -97 c3 -114 12 -106 -128 -110 l-85 -3 -5 -177 c-3 -97 -8 -179 -11 -182
-10 -10 -192 -12 -206 -3 -10 6 -13 106 -13 442 0 337 3 434 13 438 22 9 182
7 197 -3z m1113 -2 c16 -12 17 -48 15 -442 l-3 -430 -25 -6 c-14 -4 -63 -4
-110 -1 l-85 6 -3 87 c-3 102 5 97 -137 101 l-90 2 -3 75 c-5 124 -10 119 116
122 l107 3 3 46 c2 29 -2 50 -11 57 -7 6 -58 13 -113 14 l-99 3 -3 88 c-2 56
1 94 9 103 8 10 34 13 97 11 118 -4 122 -2 122 83 0 55 4 71 18 79 25 15 175
14 195 -1z m7 -998 c75 -15 165 -62 224 -119 284 -270 162 -726 -221 -825
-111 -29 -215 -16 -331 41 -69 34 -168 130 -204 199 -162 303 33 675 372 713
69 8 74 8 160 -9z m-1017 -33 c265 -123 363 -454 206 -698 -111 -173 -331
-264 -519 -214 -146 39 -263 132 -325 259 -118 239 -21 527 218 647 81 42 118
49 237 45 96 -2 111 -6 183 -39z"/>
<path d="M4595 7037 c-3 -7 -4 -109 -3 -227 l3 -215 202 -3 203 -2 5 22 c3 13
4 115 3 228 l-3 205 -203 3 c-158 2 -204 0 -207 -11z"/>
<path d="M4700 5034 c-55 -24 -98 -61 -127 -112 -37 -62 -40 -175 -6 -237 48
-90 125 -136 228 -136 148 0 247 98 249 246 0 59 -4 78 -29 124 -48 88 -121
130 -225 130 -30 0 -71 -7 -90 -15z"/>
<path d="M3584 5036 c-48 -21 -115 -86 -135 -131 -24 -52 -25 -164 -3 -208 52
-103 122 -147 234 -147 55 0 81 5 120 25 107 54 156 181 118 309 -16 55 -99
138 -154 154 -54 16 -141 15 -180 -2z"/>
<path d="M4985 3808 c-2 -7 -5 -24 -7 -38 -3 -24 -5 -25 -95 -28 -103 -3 -108
-7 -101 -83 2 -28 8 -35 28 -38 32 -4 41 -18 29 -48 -5 -14 -9 -47 -9 -74 0
-177 222 -274 357 -156 55 49 76 104 71 195 -3 74 -2 76 22 82 23 5 25 11 25
60 l0 55 -95 5 -95 5 -5 35 c-5 35 -5 35 -63 38 -40 2 -59 -1 -62 -10z m126
-237 c37 -38 39 -87 5 -124 -47 -51 -122 -43 -152 16 -50 95 71 183 147 108z"/>
<path d="M2377 3794 c-4 -4 -7 -25 -7 -48 0 -33 -21 -77 -115 -244 -64 -112
-113 -208 -110 -213 4 -5 37 -9 74 -9 82 0 80 -1 147 135 50 101 61 118 76
109 5 -3 31 -51 59 -107 69 -138 68 -137 148 -137 77 0 105 12 79 32 -9 7 -25
29 -36 48 -11 19 -59 104 -107 188 -60 107 -89 167 -93 200 l-7 47 -50 3 c-28
2 -54 0 -58 -4z"/>
<path d="M3678 3789 c-12 -7 -18 -22 -18 -48 0 -44 -10 -51 -76 -51 l-44 0 0
-55 0 -54 58 -3 c56 -3 57 -3 57 -33 0 -30 -1 -30 -57 -33 l-58 -3 0 -54 0
-55 48 0 c59 0 72 -12 72 -67 0 -48 15 -57 86 -51 l39 3 3 249 c2 193 -1 251
-10 258 -18 11 -80 9 -100 -3z"/>
<path d="M4328 3789 c-17 -9 -18 -46 -18 -538 0 -591 -7 -541 75 -541 30 0 45
5 49 16 3 9 6 181 6 384 0 326 2 369 16 374 26 10 61 7 73 -7 7 -10 12 -132
13 -388 l3 -374 48 -3 c27 -2 55 2 63 9 12 10 14 94 14 530 0 587 5 552 -79
547 l-46 -3 -5 -90 -5 -90 -45 0 -45 0 -3 80 c-2 43 -8 85 -14 92 -12 15 -76
17 -100 2z"/>
<path d="M5367 3788 c-15 -12 -16 -38 -14 -253 l2 -240 60 0 60 0 5 100 5 100
60 5 60 5 0 55 0 55 -60 5 -60 5 -3 75 c-3 84 -14 100 -67 100 -17 0 -39 -6
-48 -12z"/>
<path d="M2757 3784 c-4 -4 -7 -117 -7 -251 l0 -243 65 0 64 0 3 103 3 102 50
3 c64 4 77 15 73 66 l-3 41 -52 3 c-28 2 -56 9 -62 15 -5 7 -11 46 -13 87 l-3
75 -55 3 c-31 2 -59 0 -63 -4z"/>
<path d="M3070 3535 l0 -245 209 0 209 0 5 28 c4 21 2 426 -2 455 0 4 -95 7
-211 7 l-210 0 0 -245z m290 0 c0 -93 -3 -125 -12 -126 -149 -12 -148 -13
-148 131 l0 120 80 0 80 0 0 -125z"/>
<path d="M3932 3538 l3 -243 168 -3 167 -2 1 37 c2 44 -1 66 -8 73 -2 3 -48 7
-101 10 l-97 5 0 120 0 120 98 5 c59 3 101 10 105 17 4 6 6 32 4 57 l-4 46
-169 0 -169 0 2 -242z"/>
<path d="M5654 3756 c-3 -7 -4 -33 -2 -57 l3 -44 245 -5 c135 -3 246 -7 247
-8 2 -1 4 -80 5 -174 l3 -173 54 -3 c37 -2 57 1 62 10 5 7 9 108 9 225 0 176
-3 214 -15 227 -22 22 -603 24 -611 2z"/>
<path d="M5766 3264 c-4 -9 -6 -105 -6 -212 1 -107 -2 -198 -7 -203 -4 -4 -26
-9 -48 -11 l-40 -3 -3 -52 c-2 -42 0 -52 14 -55 9 -2 159 -1 333 2 l316 5 0
50 0 50 -115 5 -115 5 -6 215 c-3 118 -6 216 -7 218 -1 2 -28 2 -59 0 l-58 -3
-5 -215 -5 -215 -30 0 -30 0 -5 215 -5 215 -56 3 c-46 2 -58 0 -63 -14z"/>
<path d="M2492 3214 c-124 -62 -180 -204 -136 -342 21 -64 62 -114 122 -150
41 -24 57 -27 132 -27 75 0 91 3 132 27 96 57 145 151 136 263 -7 75 -30 127
-81 178 -81 81 -203 102 -305 51z m160 -114 c101 -29 130 -175 47 -244 -40
-34 -126 -37 -170 -5 -32 22 -59 76 -59 116 0 54 53 122 105 136 32 8 38 7 77
-3z"/>
<path d="M3423 3225 c-58 -25 -112 -77 -141 -134 -22 -46 -27 -69 -27 -131 0
-65 5 -83 31 -130 57 -101 144 -147 262 -137 230 18 326 305 158 472 -32 32
-66 55 -92 63 -55 16 -151 15 -191 -3z m174 -140 c80 -53 84 -178 6 -233 -77
-54 -171 -24 -210 67 -19 44 -10 91 24 132 50 58 121 72 180 34z"/>
<path d="M722 3189 c-50 -81 -102 -263 -102 -356 0 -58 -12 -68 -28 -25 -21
56 -25 70 -57 192 -27 104 -36 127 -56 137 -33 18 -59 16 -59 -3 0 -22 30
-153 41 -182 22 -56 -3 -56 -66 -2 -25 22 -80 56 -122 76 -66 32 -88 38 -168
42 -60 3 -95 1 -99 -6 -8 -13 98 -120 179 -180 103 -76 160 -100 265 -110 l65
-7 25 -72 c13 -40 21 -75 17 -79 -4 -4 -24 2 -45 15 -140 85 -288 138 -414
148 -79 7 -86 -3 -30 -44 20 -15 63 -49 94 -75 118 -96 229 -143 374 -156 l79
-7 43 -88 c24 -49 41 -91 38 -94 -2 -3 -38 15 -78 40 -132 83 -233 117 -342
117 -29 0 -60 -6 -70 -13 -16 -12 -11 -19 61 -74 184 -142 275 -182 415 -183
l87 0 57 -82 c84 -122 84 -141 3 -90 -112 71 -254 123 -334 121 -51 -1 -109
-22 -112 -40 -2 -8 25 -35 60 -61 196 -146 376 -206 496 -163 l41 14 104 -107
c58 -59 101 -111 97 -115 -5 -4 -39 6 -77 24 -137 63 -269 95 -352 85 -61 -7
-112 -30 -112 -50 0 -18 179 -100 298 -135 130 -39 241 -55 323 -47 l67 7 128
-87 c71 -48 131 -89 133 -91 2 -2 1 -6 -2 -9 -4 -4 -60 5 -126 20 -177 39
-339 35 -444 -11 -75 -33 -31 -59 203 -120 118 -31 154 -36 293 -40 144 -5
163 -4 228 17 l71 23 57 -28 c58 -28 172 -72 276 -107 69 -23 91 -38 55 -38
-219 0 -423 -10 -465 -22 -90 -27 -171 -77 -147 -92 31 -19 234 -49 362 -53
196 -7 296 15 415 94 l51 33 159 -36 c88 -19 170 -37 183 -40 39 -8 15 -22
-60 -34 -146 -25 -244 -67 -319 -137 -74 -69 -68 -77 44 -69 271 19 507 82
616 163 l33 26 182 -37 c99 -21 191 -39 204 -42 12 -2 22 -9 22 -14 0 -11 -21
-16 -100 -25 -117 -13 -255 -68 -327 -130 -61 -52 -108 -114 -96 -126 11 -11
248 10 368 32 163 29 262 75 328 150 l46 53 43 -14 c173 -53 295 -96 307 -106
16 -15 0 -26 -158 -109 -89 -47 -122 -75 -87 -75 8 0 33 -9 54 -20 l39 -21
168 81 167 81 170 -81 170 -81 54 23 c30 13 54 26 54 30 0 6 -211 123 -252
140 -36 15 -18 36 55 61 220 76 307 99 307 79 0 -5 15 -26 34 -48 78 -91 263
-147 556 -169 47 -3 97 -8 113 -11 44 -9 34 21 -34 91 -94 99 -209 151 -383
174 -133 19 -125 24 111 72 215 45 224 45 247 20 46 -51 229 -114 407 -141
108 -16 300 -32 306 -26 11 10 -46 73 -99 109 -61 42 -163 80 -263 97 -38 7
-76 16 -84 20 -9 5 31 18 100 34 63 14 146 34 186 43 l72 16 54 -35 c162 -108
338 -122 706 -58 72 12 79 22 41 53 -64 55 -142 70 -388 75 -123 2 -220 8
-215 12 4 4 78 33 163 65 85 31 175 67 199 80 l44 22 66 -23 c130 -46 395 -25
633 52 133 42 150 54 115 77 -83 54 -270 66 -442 27 -143 -31 -155 -33 -155
-24 0 5 59 48 129 96 l129 87 109 -1 c158 -1 311 39 506 130 95 45 100 64 25
87 -110 32 -256 5 -431 -82 -26 -13 -52 -21 -58 -18 -9 6 166 199 197 217 6 5
31 1 54 -7 51 -18 95 -19 158 -4 70 17 199 80 283 137 133 92 136 98 70 120
-45 16 -114 15 -176 -2 -57 -15 -175 -68 -215 -96 -14 -10 -39 -22 -55 -26
-37 -9 -33 1 40 106 l57 80 76 0 c141 0 242 42 397 163 50 38 94 74 100 79 32
29 -112 38 -208 13 -62 -16 -166 -66 -237 -114 -24 -17 -48 -27 -53 -22 -9 9
66 161 90 178 9 7 43 13 74 13 84 0 147 16 228 58 70 37 271 188 271 204 0 4
-19 8 -43 8 -108 0 -257 -47 -395 -125 -43 -25 -81 -40 -86 -35 -5 5 2 38 16
77 l24 68 60 7 c78 8 157 37 226 80 58 38 221 185 226 205 5 19 -63 27 -134
15 -84 -14 -175 -56 -248 -114 -33 -27 -63 -48 -68 -48 -13 0 -10 31 12 116
27 108 26 124 -5 124 -40 0 -61 -31 -80 -116 -21 -95 -64 -236 -75 -248 -10
-10 -17 16 -24 99 -3 33 -12 86 -21 118 -17 65 -84 217 -95 217 -36 0 -49
-342 -18 -468 13 -57 34 -100 61 -130 l21 -23 -47 -95 c-26 -52 -52 -92 -57
-89 -6 3 -10 33 -10 66 0 125 -84 364 -149 423 -28 25 -34 9 -39 -108 -7 -184
39 -430 93 -494 14 -17 25 -35 25 -42 0 -20 -131 -211 -141 -205 -5 4 -9 35
-9 70 0 35 -6 88 -14 117 -31 118 -133 335 -162 345 -18 6 -25 -102 -15 -207
13 -127 43 -239 88 -330 21 -41 39 -78 41 -82 5 -12 -209 -228 -226 -228 -12
0 -13 9 -6 48 14 73 8 212 -12 283 -24 86 -63 169 -81 169 -60 0 -100 -416
-53 -550 11 -30 19 -60 20 -66 0 -19 -306 -222 -318 -210 -3 3 9 32 26 63 49
93 64 171 60 303 -2 72 -9 124 -17 139 l-14 25 -24 -30 c-99 -121 -194 -404
-177 -528 l7 -45 -69 -32 c-86 -39 -312 -114 -321 -106 -3 4 25 40 63 80 109
115 164 230 164 339 0 49 -12 49 -91 -4 -149 -100 -279 -267 -294 -379 -13
-90 -9 -86 -82 -103 -99 -22 -325 -56 -335 -50 -13 9 -2 19 80 77 136 96 229
212 247 310 9 47 4 47 -88 1 -214 -107 -326 -199 -381 -313 -18 -38 -36 -79
-38 -89 -4 -15 -18 -21 -59 -27 -30 -4 -90 -15 -135 -24 -89 -19 -112 -18 -93
5 6 8 16 14 21 14 6 0 41 20 79 45 99 66 159 149 159 220 0 19 -4 35 -8 35 -5
0 -37 -12 -72 -26 -234 -95 -412 -221 -481 -341 -19 -34 -32 -44 -69 -53 -92
-24 -177 -52 -264 -87 -49 -19 -132 -50 -186 -68 l-96 -34 -100 33 c-54 19
-144 51 -199 73 -92 37 -140 53 -253 83 -33 8 -45 18 -56 43 -35 84 -160 188
-336 279 -150 78 -220 105 -230 88 -11 -18 13 -93 43 -139 27 -40 126 -120
189 -152 45 -23 51 -44 11 -36 -16 4 -71 13 -123 22 -139 24 -140 25 -145 38
-38 110 -51 134 -112 197 -35 38 -99 91 -141 118 -83 53 -234 132 -253 132
-17 0 -4 -53 30 -126 32 -69 116 -156 222 -231 68 -48 85 -73 51 -73 -27 0
-303 49 -344 62 -34 10 -38 14 -43 57 -16 122 -94 248 -212 346 -73 60 -151
115 -165 115 -18 0 -19 -55 -3 -123 22 -95 63 -165 148 -254 39 -40 67 -76 63
-80 -8 -8 -135 31 -252 78 -139 56 -128 43 -130 151 -1 71 -8 113 -29 178 -43
136 -152 339 -174 325 -17 -10 -31 -96 -31 -181 0 -104 21 -198 63 -277 47
-91 38 -88 -138 29 -169 114 -162 107 -146 146 54 134 54 327 -1 516 -23 81
-38 89 -68 40 -55 -89 -88 -275 -70 -392 6 -43 9 -80 5 -84 -6 -7 -210 192
-226 221 -8 14 -7 23 5 36 40 44 95 214 116 356 17 125 11 250 -13 242 -18 -6
-107 -182 -138 -274 -20 -59 -32 -117 -36 -175 -3 -49 -10 -88 -14 -88 -11 0
-139 195 -139 212 0 7 11 23 24 36 54 51 90 226 90 444 1 179 -6 200 -48 146
-62 -82 -124 -263 -130 -379 -2 -41 -4 -80 -5 -86 -3 -34 -26 -4 -68 83 l-45
96 27 28 c38 39 64 134 71 258 6 109 -7 288 -24 318 -8 14 -12 11 -30 -17z"/>
<path d="M4874 3186 c-3 -7 -4 -33 -2 -57 l3 -44 235 -5 235 -5 5 -175 5 -175
63 -3 62 -3 -2 238 -3 238 -298 3 c-248 2 -298 0 -303 -12z"/>
<path d="M3815 2491 c-77 -19 -119 -74 -119 -156 0 -87 49 -146 133 -160 83
-14 166 49 173 130 l3 40 -70 0 c-68 0 -70 -1 -70 -25 0 -18 6 -26 23 -28 44
-7 18 -52 -31 -52 -40 0 -62 14 -77 49 -38 94 60 180 131 115 22 -20 69 -9 69
16 0 21 -54 70 -78 70 -9 0 -26 2 -37 4 -11 3 -34 1 -50 -3z"/>
<path d="M5561 2489 c-75 -14 -121 -76 -121 -159 0 -50 19 -89 60 -124 26 -22
41 -26 91 -26 98 0 149 41 152 123 l2 42 -61 3 c-43 2 -64 -1 -73 -11 -15 -19
-4 -47 18 -47 25 0 32 -10 20 -31 -7 -13 -21 -19 -45 -19 -48 0 -84 37 -84 85
0 84 63 129 121 86 33 -24 48 -26 73 -8 27 19 6 54 -47 78 -46 21 -44 20 -106
8z"/>
<path d="M2823 2472 c-31 -24 -46 -78 -30 -110 13 -27 23 -35 80 -57 25 -10
37 -22 37 -35 0 -26 -43 -37 -75 -20 -29 15 -55 0 -55 -31 0 -25 37 -39 100
-39 69 0 110 35 110 93 -1 52 -16 73 -66 90 -39 14 -64 40 -50 54 4 4 26 8 49
8 38 0 42 3 45 26 2 20 -2 28 -20 33 -43 11 -103 6 -125 -12z"/>
<path d="M3133 2482 c-14 -9 -113 -259 -113 -284 0 -32 70 -19 85 15 8 17 20
23 54 25 38 3 47 -1 72 -27 28 -31 74 -42 81 -19 6 16 -97 279 -113 289 -17
11 -50 11 -66 1z m51 -138 c11 -29 6 -44 -13 -44 -25 0 -34 14 -26 40 8 24 30
26 39 4z"/>
<path d="M3368 2477 c-10 -11 -14 -47 -16 -145 -1 -142 5 -160 53 -148 24 6
25 10 25 81 0 53 4 75 13 75 6 0 38 -34 70 -75 56 -73 88 -94 122 -81 13 5 15
28 13 153 l-3 148 -30 0 -30 0 -5 -80 c-3 -47 -9 -80 -16 -80 -6 0 -39 36 -75
80 -65 81 -94 98 -121 72z"/>
<path d="M4151 2469 c-15 -37 -51 -257 -45 -274 4 -8 17 -15 30 -15 28 0 38
20 49 94 12 77 22 70 69 -47 22 -55 45 -46 76 31 32 80 60 81 60 2 0 -50 17
-80 45 -80 35 0 39 17 26 102 -28 180 -33 197 -52 203 -36 12 -57 -5 -80 -63
-12 -31 -26 -61 -31 -66 -12 -15 -29 6 -49 65 -22 62 -18 57 -57 65 -27 5 -33
3 -41 -17z"/>
<path d="M4476 2482 c-3 -5 17 -41 44 -80 48 -69 50 -73 50 -141 0 -67 1 -71
25 -77 47 -12 55 -1 55 78 0 69 2 76 39 125 60 79 65 90 40 98 -33 11 -67 -3
-86 -35 -22 -38 -44 -38 -66 0 -10 17 -26 30 -35 30 -9 0 -27 3 -38 6 -12 3
-24 1 -28 -4z"/>
<path d="M4790 2475 c-8 -10 -11 -49 -8 -125 l3 -112 33 -29 c27 -25 41 -29
88 -29 65 0 105 18 122 55 7 15 12 72 12 134 0 90 -3 110 -16 115 -23 9 -31 8
-48 -10 -12 -11 -15 -37 -15 -112 0 -81 -2 -98 -17 -109 -25 -18 -48 -16 -69
7 -14 15 -19 42 -23 117 -3 55 -10 101 -16 105 -17 12 -32 9 -46 -7z"/>
<path d="M5113 2483 c-10 -3 -13 -43 -13 -149 l0 -144 24 -6 c39 -9 46 2 46
74 0 59 12 106 23 92 129 -170 129 -170 169 -170 35 0 37 10 35 169 -2 106 -5
125 -19 135 -13 8 -23 8 -35 0 -14 -9 -19 -28 -21 -83 -2 -47 -7 -71 -15 -71
-7 0 -40 36 -75 80 -61 79 -79 90 -119 73z"/>
<path d="M2973 2014 c-9 -4 -13 -39 -13 -123 0 -111 2 -120 24 -144 52 -56
166 -53 210 6 19 25 21 42 21 145 0 115 0 117 -24 120 -36 6 -44 -11 -42 -92
3 -116 -33 -176 -89 -146 -25 13 -29 33 -33 145 -2 82 -4 90 -22 92 -11 1 -26
-1 -32 -3z"/>
<path d="M3277 2013 c-4 -3 -7 -70 -7 -149 l0 -142 28 -4 c48 -7 52 -1 52 78
0 82 13 96 46 47 44 -69 96 -121 124 -125 16 -3 34 -2 40 2 7 4 10 58 8 151
l-3 144 -30 0 -30 0 -5 -74 c-3 -44 -10 -76 -17 -78 -6 -2 -38 29 -70 69 -32
40 -62 76 -68 80 -13 10 -59 10 -68 1z"/>
<path d="M3662 2008 c-8 -8 -12 -52 -12 -145 l0 -133 26 -10 c49 -19 55 -3 52
154 l-3 141 -25 3 c-14 2 -31 -3 -38 -10z"/>
<path d="M3780 2007 c0 -8 14 -48 30 -88 17 -41 42 -102 56 -135 19 -47 31
-63 49 -66 13 -3 29 -2 36 2 15 10 130 280 123 291 -6 11 -45 11 -61 1 -7 -4
-25 -39 -41 -77 -16 -39 -35 -71 -43 -73 -10 -2 -25 22 -45 75 -30 76 -32 78
-67 81 -27 2 -37 -1 -37 -11z"/>
<path d="M4137 2014 c-4 -4 -7 -72 -7 -151 l0 -143 86 0 85 0 -3 28 c-3 23 -8
27 -40 30 -65 6 -78 52 -14 52 19 0 39 7 46 15 19 23 4 45 -29 45 -34 0 -63
24 -55 45 4 9 19 15 38 15 42 0 58 13 54 41 -3 23 -7 24 -78 27 -42 1 -79 0
-83 -4z"/>
<path d="M4387 2013 c-6 -10 -10 -112 -8 -219 1 -59 4 -72 19 -76 36 -9 51 2
54 39 4 50 20 51 46 4 18 -31 29 -40 57 -43 58 -7 63 5 22 55 -20 25 -37 49
-37 54 0 5 11 20 25 33 36 34 32 104 -7 133 -29 21 -161 37 -171 20z m104 -63
c25 -14 24 -46 -1 -60 -27 -14 -40 -5 -40 29 0 41 9 48 41 31z"/>
<path d="M4679 1991 c-21 -21 -29 -39 -29 -63 0 -45 18 -68 71 -88 29 -12 45
-24 47 -38 4 -27 -30 -38 -69 -22 -26 11 -32 10 -44 -6 -18 -24 -18 -29 -2
-42 26 -22 93 -30 133 -16 52 18 65 39 62 99 -3 49 -4 50 -55 75 -65 32 -69
36 -53 55 9 11 22 14 44 10 25 -5 34 -2 45 16 12 20 11 24 -5 36 -10 7 -40 13
-67 13 -40 0 -53 -5 -78 -29z"/>
<path d="M4927 2013 c-4 -3 -7 -70 -7 -149 l0 -142 30 -4 c16 -3 34 0 40 6 15
15 13 269 -2 284 -13 13 -50 16 -61 5z"/>
<path d="M5063 2014 c-7 -3 -13 -17 -13 -30 0 -19 6 -26 30 -30 l29 -6 3 -112
3 -111 37 -3 37 -3 3 112 c3 111 3 113 28 119 20 5 25 12 25 35 l0 30 -85 2
c-47 1 -91 -1 -97 -3z"/>
<path d="M5290 2008 c0 -6 23 -44 50 -84 48 -69 50 -75 50 -138 l0 -66 35 0
35 0 0 68 c0 65 2 70 50 137 28 38 50 75 50 82 0 8 -13 13 -35 13 -27 0 -40
-7 -62 -35 -15 -19 -33 -35 -39 -35 -7 0 -24 16 -38 35 -22 28 -34 35 -62 35
-19 0 -34 -5 -34 -12z"/>
</g>
</svg>
