<?xml version="1.0" standalone="no"?>
<!DOCTYPE svg PUBLIC "-//W3C//DTD SVG 20010904//EN"
 "http://www.w3.org/TR/2001/REC-SVG-20010904/DTD/svg10.dtd">
<svg version="1.0" xmlns="http://www.w3.org/2000/svg"
 width="330.000000pt" height="266.000000pt" viewBox="0 0 330.000000 266.000000"
 preserveAspectRatio="xMidYMid meet">

<g transform="translate(0.000000,266.000000) scale(0.100000,-0.100000)"
fill="#000000" stroke="none">
<path d="M1996 824 c-222 -233 -412 -354 -626 -399 -149 -31 -250 -15 -316 50
-47 48 -69 104 -83 212 -5 39 -12 76 -15 82 -4 6 -53 -46 -109 -116 -57 -70
-108 -128 -114 -130 -6 -2 -36 37 -67 88 -51 86 -55 90 -62 65 -3 -15 -5 -68
-2 -119 5 -117 34 -183 112 -255 74 -67 155 -93 291 -93 282 0 594 156 894
445 96 93 241 259 241 276 0 30 -45 -3 -144 -106z"/>
</g>
</svg>
